<svg width="23" height="26" viewBox="0 0 23 26" fill="none" xmlns="http://www.w3.org/2000/svg">
    <path d="M18.5051 23.327H16.3532V13.9616C16.3532 13.4925 15.9869 13.1329 15.5443 13.1329C15.1017 13.1329 14.7355 13.5081 14.7355 13.9616V23.327H12.0494V10.6469C12.0494 10.1779 11.6831 9.81824 11.2406 9.81824C10.798 9.81824 10.4317 10.1779 10.4317 10.6469V23.327H7.74564V13.9616C7.74564 13.4925 7.37936 13.1329 6.93677 13.1329C6.49419 13.1329 6.12791 13.5081 6.12791 13.9616V23.327H3.97602V6.22215H18.5051V23.327ZM11.5 2.64169C12.9651 2.64169 14.2471 3.18893 14.8728 4.58046H8.11192C8.75291 3.18893 10.0196 2.64169 11.4847 2.64169H11.5ZM21.1911 4.58046H16.5669C15.8038 2.4228 13.8198 1 11.5 1C9.18023 1 7.19622 2.43844 6.43314 4.58046H1.80887C1.36628 4.58046 1 4.9557 1 5.40912C1 5.87818 1.36628 6.23778 1.80887 6.23778H2.34302V23.3427C2.34302 24.2495 3.06032 25 3.96076 25H18.4898C19.375 25 20.1076 24.2495 20.1076 23.3427V6.23778H21.1911C21.6337 6.23778 22 5.87818 22 5.40912C22 4.9557 21.6337 4.58046 21.1911 4.58046Z" fill="#828282" stroke="#828282" stroke-width="0.6"/>
</svg>
